<svg width="64" height="64" viewBox="0 0 64 64" fill="none" xmlns="http://www.w3.org/2000/svg">
<g clip-path="url(#clip0)">
<path fill-rule="evenodd" clip-rule="evenodd" d="M5.312 17.1947C6.21067 15.4133 7.70667 12.44 8.584 10.6667C8.93067 9.97067 9.592 9.56 10.368 9.49067C14.0133 9.15733 21.6827 8.58667 24.8453 8.37867C26.304 8.28267 27.3813 8.49867 28.3147 9.43733L35.744 16.904C36.4133 17.576 36.7893 18.4853 36.7867 19.432L36.7733 43.5253L44.6293 50.0987L51.88 42.1093C53.456 40.376 56.312 40.9493 57.0587 43.1733C59.56 50.6853 64 64 64 64H32L42.8347 52.0747L26.6773 38.552L22.0133 34.648L27.24 44.1333C27.5173 44.6347 27.6773 45.1893 27.7147 45.7547L28.7707 61.8747C28.8293 62.8187 28.176 64 26.672 64C25.6907 64 24.84 63.3253 24.6187 62.3707C23.7947 58.8427 21.8853 50.64 21.4027 48.5627C21.328 48.2427 21.1707 47.952 20.9493 47.712C19.4853 46.136 13.648 40 13.648 40C13.648 40 6.17067 57.776 4.152 62.7333C3.85067 63.472 3.15467 64 2.15733 64C0.925333 64 0 62.9813 0 61.8587C0 61.4693 4.65333 39.008 6.192 30.824C6.37867 29.8347 6.82933 28.912 7.49867 28.1573L10.3787 24.912L1.03733 17.0933C-0.314667 15.96 1.40267 13.9147 2.74933 15.048L5.312 17.1947ZM23.5893 32.488L28.3893 36.5067L33.5947 40.864L30.7653 25.0027L23.5893 32.488ZM7.69333 19.1867L12.1493 22.9147L19.592 14.5253L12.312 14.0373L7.69333 19.1867ZM38.768 0C42.368 0 45.2907 2.92267 45.2907 6.52267C45.2907 10.1227 42.368 13.0427 38.768 13.0427C35.1707 13.0427 32.2453 10.1227 32.2453 6.52267C32.2453 2.92267 35.1707 0 38.768 0Z" fill="black"/>
</g>
<defs>
<clipPath id="clip0">
<rect width="64" height="64" fill="white"/>
</clipPath>
</defs>
</svg>
