<svg width="500" height="371" viewBox="0 0 500 371" fill="none" xmlns="http://www.w3.org/2000/svg">
<g clip-path="url(#clip0)">
<path d="M361.821 0.68029L10.5643 109.826C2.64472 112.286 -1.78048 120.701 0.680367 128.621L63.8714 331.985C66.3322 339.905 74.7473 344.33 82.6669 341.869L433.923 232.724C441.843 230.263 446.268 221.848 443.807 213.928L380.616 10.5642C378.155 2.64464 369.74 -1.78056 361.821 0.68029Z" fill="url(#paint0_linear)"/>
<path d="M360.002 3.892L16.4969 110.629C8.57734 113.089 4.15214 121.504 6.61298 129.424L67.2521 324.576C69.7129 332.495 78.1279 336.92 86.0476 334.459L429.552 227.723C437.472 225.262 441.897 216.847 439.436 208.927L378.797 13.776C376.336 5.85636 367.921 1.43116 360.002 3.892Z" fill="white"/>
<path d="M383.507 28.9333L11.3228 144.581L21.2971 176.681L393.481 61.0331L383.507 28.9333Z" fill="#4F1980"/>
<path d="M182.829 258.723L88.2651 288.107L92.5784 301.988L187.143 272.604L182.829 258.723Z" fill="#BDBDBD"/>
<path d="M244.956 213.733L80.9868 264.683L85.3 278.564L249.269 227.614L244.956 213.733Z" fill="#E0E0E0"/>
<path d="M484.984 127.683H114.918C106.625 127.683 99.9019 134.406 99.9019 142.699V355.894C99.9019 364.187 106.625 370.91 114.918 370.91H484.984C493.277 370.91 500 364.187 500 355.894V142.699C500 134.406 493.277 127.683 484.984 127.683Z" fill="url(#paint1_linear)"/>
<path d="M479.166 130.163H119.46C111.167 130.163 104.444 136.886 104.444 145.179V349.535C104.444 357.828 111.167 364.551 119.46 364.551H479.166C487.459 364.551 494.182 357.828 494.182 349.535V145.179C494.182 136.886 487.459 130.163 479.166 130.163Z" fill="white"/>
<path d="M208.482 243.948H197.126V276.199H208.482V243.948Z" fill="#E0E0E0"/>
<path d="M223.018 243.948H211.662V276.199H223.018V243.948Z" fill="#E0E0E0"/>
<path d="M237.554 243.948H226.198V276.199H237.554V243.948Z" fill="#E0E0E0"/>
<path d="M262.991 243.948H251.635V276.199H262.991V243.948Z" fill="#E0E0E0"/>
<path d="M277.527 243.948H266.171V276.199H277.527V243.948Z" fill="#E0E0E0"/>
<path d="M292.062 243.948H280.707V276.199H292.062V243.948Z" fill="#E0E0E0"/>
<path d="M317.5 243.948H306.144V276.199H317.5V243.948Z" fill="#E0E0E0"/>
<path d="M332.036 243.948H320.68V276.199H332.036V243.948Z" fill="#E0E0E0"/>
<path d="M346.571 243.948H335.215V276.199H346.571V243.948Z" fill="#E0E0E0"/>
<path d="M372.009 243.948H360.653V276.199H372.009V243.948Z" fill="#E0E0E0"/>
<path d="M386.544 243.948H375.188V276.199H386.544V243.948Z" fill="#E0E0E0"/>
<path d="M401.08 243.948H389.724V276.199H401.08V243.948Z" fill="#E0E0E0"/>
<path d="M196.949 191.57H129.24V228.7H196.949V191.57Z" fill="#4F1980"/>
<path opacity="0.1" d="M433.93 313.336H392.431V354.835H433.93V313.336Z" fill="#6C63FF"/>
<path opacity="0.1" d="M454.679 313.336H413.18V354.835H454.679V313.336Z" fill="#6C63FF"/>
</g>
<defs>
<linearGradient id="paint0_linear" x1="222.992" y1="343.186" x2="224.503" y2="-0.623941" gradientUnits="userSpaceOnUse">
<stop stop-color="#808080" stop-opacity="0.25"/>
<stop offset="0.53514" stop-color="#808080" stop-opacity="0.12"/>
<stop offset="1" stop-color="#808080" stop-opacity="0.1"/>
</linearGradient>
<linearGradient id="paint1_linear" x1="219883" y1="165346" x2="219883" y2="57002.9" gradientUnits="userSpaceOnUse">
<stop stop-color="#808080" stop-opacity="0.25"/>
<stop offset="0.53514" stop-color="#808080" stop-opacity="0.12"/>
<stop offset="1" stop-color="#808080" stop-opacity="0.1"/>
</linearGradient>
<clipPath id="clip0">
<rect width="500" height="370.91" fill="white"/>
</clipPath>
</defs>
</svg>
