<svg width="64" height="64" viewBox="0 0 64 64" fill="none" xmlns="http://www.w3.org/2000/svg">
<g clip-path="url(#clip0)">
<path d="M18.6667 42.6667H0V34.6667H18.6667V42.6667ZM42.6667 34.6667H21.3333V42.6667H42.6667V34.6667ZM64 34.6667H45.3333V42.6667H64V34.6667ZM18.6667 56.0533H0V64H18.6667V56.0533ZM42.6667 56H21.3333V63.9467H42.6667V56ZM64 56.0533H45.424V64H64V56.0533ZM32 45.3333H10.6667V53.3333H32V45.3333ZM53.3333 45.3333H34.6667V53.3333H53.3333V45.3333ZM64 45.3333H56V53.3333H64V45.3333ZM8 45.3333H0V53.3333H8V45.3333ZM52.7227 14.8213C52.8027 18.4187 51.0987 21.056 49.0987 22.088C43.0213 19.92 51.7307 5.872 35.1707 1.008C38.496 5.872 37.7973 13.7867 32.4587 16.456C26.7707 13.4 33.504 2.01867 16.576 0C24.4853 8.49067 11.9733 13.8133 16.736 21.44C14.1147 20.928 11.984 17.1253 13.176 13.0213C7.14933 17.28 7.78667 25.832 11.608 29.3333H23.4773C21.0587 26 27.7653 23.2347 23.4587 19.504C32.7627 20.4 29.064 25.448 32.1893 26.8053C35.1253 25.6213 36.3493 22.608 34.5493 19.64C40.848 21.0427 41.4987 26.9653 39.744 29.3307H52.0667C56.424 25.4853 55.9947 19.064 52.7227 14.8213V14.8213Z" fill="black"/>
</g>
<defs>
<clipPath id="clip0">
<rect width="64" height="64" fill="white"/>
</clipPath>
</defs>
</svg>
