<svg width="24" height="24" viewBox="0 0 24 24" fill="none" xmlns="http://www.w3.org/2000/svg">
<mask id="path-1-inside-1" fill="white">
<path fill-rule="evenodd" clip-rule="evenodd" d="M24 18V19H0V18H24ZM24 12V13H0V12H24ZM24 6V7H0V6H24Z"/>
</mask>
<path fill-rule="evenodd" clip-rule="evenodd" d="M24 18V19H0V18H24ZM24 12V13H0V12H24ZM24 6V7H0V6H24Z" fill="#1040E2"/>
<path d="M24 18H25V17H24V18ZM24 19V20H25V19H24ZM0 19H-1V20H0V19ZM0 18V17H-1V18H0ZM24 12H25V11H24V12ZM24 13V14H25V13H24ZM0 13H-1V14H0V13ZM0 12V11H-1V12H0ZM24 6H25V5H24V6ZM24 7V8H25V7H24ZM0 7H-1V8H0V7ZM0 6V5H-1V6H0ZM23 18V19H25V18H23ZM24 18H0V20H24V18ZM1 19V18H-1V19H1ZM0 19H24V17H0V19ZM23 12V13H25V12H23ZM24 12H0V14H24V12ZM1 13V12H-1V13H1ZM0 13H24V11H0V13ZM23 6V7H25V6H23ZM24 6H0V8H24V6ZM1 7V6H-1V7H1ZM0 7H24V5H0V7Z" fill="white" mask="url(#path-1-inside-1)"/>
<mask id="path-3-inside-2" fill="white">
<path fill-rule="evenodd" clip-rule="evenodd" d="M24 19H0V18H24V19ZM24 13H0V12H24V13ZM24 7H0V6H24V7Z"/>
</mask>
<path fill-rule="evenodd" clip-rule="evenodd" d="M24 19H0V18H24V19ZM24 13H0V12H24V13ZM24 7H0V6H24V7Z" fill="black"/>
<path d="M24 19V20H25V19H24ZM0 19H-1V20H0V19ZM0 18V17H-1V18H0ZM24 18H25V17H24V18ZM24 13V14H25V13H24ZM0 13H-1V14H0V13ZM0 12V11H-1V12H0ZM24 12H25V11H24V12ZM24 7V8H25V7H24ZM0 7H-1V8H0V7ZM0 6V5H-1V6H0ZM24 6H25V5H24V6ZM24 18H0V20H24V18ZM1 19V18H-1V19H1ZM0 19H24V17H0V19ZM23 18V19H25V18H23ZM24 12H0V14H24V12ZM1 13V12H-1V13H1ZM0 13H24V11H0V13ZM23 12V13H25V12H23ZM24 6H0V8H24V6ZM1 7V6H-1V7H1ZM0 7H24V5H0V7ZM23 6V7H25V6H23Z" fill="white" mask="url(#path-3-inside-2)"/>
</svg>
