<svg width="64" height="64" viewBox="0 0 64 64" fill="none" xmlns="http://www.w3.org/2000/svg">
<g clip-path="url(#clip0)">
<path d="M6.39967 11.7333H12.7997C13.3888 11.7333 13.8663 11.2557 13.8663 10.6666C13.8663 10.0775 13.3888 9.59995 12.7997 9.59995H6.39967C5.81057 9.59995 5.33301 10.0775 5.33301 10.6666C5.33301 11.2557 5.81057 11.7333 6.39967 11.7333Z" fill="black"/>
<path d="M18.1336 11.7333H27.7336C28.3227 11.7333 28.8002 11.2557 28.8002 10.6666C28.8002 10.0775 28.3227 9.59995 27.7336 9.59995H18.1336C17.5445 9.59995 17.0669 10.0775 17.0669 10.6666C17.0669 11.2557 17.5445 11.7333 18.1336 11.7333Z" fill="black"/>
<path d="M6.39967 23.4667H40.533C41.1221 23.4667 41.5997 22.9891 41.5997 22.4C41.5997 21.8109 41.1221 21.3334 40.533 21.3334H6.39967C5.81057 21.3334 5.33301 21.8109 5.33301 22.4C5.33301 22.9891 5.81057 23.4667 6.39967 23.4667Z" fill="black"/>
<path d="M6.39967 27.7333H21.333C21.9221 27.7333 22.3997 27.2557 22.3997 26.6666C22.3997 26.0775 21.9221 25.6 21.333 25.6H6.39967C5.81057 25.6 5.33301 26.0775 5.33301 26.6666C5.33301 27.2557 5.81057 27.7333 6.39967 27.7333Z" fill="black"/>
<path d="M6.39967 36.2667H21.333C21.9221 36.2667 22.3997 35.7891 22.3997 35.2C22.3997 34.6109 21.9221 34.1334 21.333 34.1334H6.39967C5.81057 34.1334 5.33301 34.6109 5.33301 35.2C5.33301 35.7891 5.81057 36.2667 6.39967 36.2667Z" fill="black"/>
<path d="M6.39967 44.8H21.333C21.9221 44.8 22.3997 44.3224 22.3997 43.7333C22.3997 43.1442 21.9221 42.6666 21.333 42.6666H6.39967C5.81057 42.6666 5.33301 43.1442 5.33301 43.7333C5.33301 44.3224 5.81057 44.8 6.39967 44.8Z" fill="black"/>
<path d="M6.39967 53.3334H21.333C21.9221 53.3334 22.3997 52.8558 22.3997 52.2667C22.3997 51.6776 21.9221 51.2 21.333 51.2H6.39967C5.81057 51.2 5.33301 51.6776 5.33301 52.2667C5.33301 52.8558 5.81057 53.3334 6.39967 53.3334Z" fill="black"/>
<path d="M63.36 31.072L51.2 25.8208V3.2C51.2 1.43269 49.7673 0 48 0H7.46667C5.69936 0 4.26667 1.43269 4.26667 3.2V4.26667H3.2C1.43269 4.26667 0 5.69936 0 7.46667V60.8C0 62.5673 1.43269 64 3.2 64H43.7333C44.5963 63.9981 45.4217 63.6467 46.0213 63.0261L46.896 63.648C47.5572 64.1174 48.4428 64.1174 49.104 63.648L59.424 56.3019C62.2848 54.2714 63.9891 50.9844 64 47.4763V32.0512C64.0006 31.6265 63.7493 31.2419 63.36 31.072ZM6.4 3.2C6.4 2.6109 6.87756 2.13333 7.46667 2.13333H48C48.5891 2.13333 49.0667 2.6109 49.0667 3.2V24.8992L48.4267 24.6208C48.1571 24.5045 47.8515 24.5045 47.5819 24.6208L46.9419 24.8992V18.1333C46.9419 18.1099 46.9301 18.0875 46.928 18.064C46.9227 17.9746 46.9055 17.8864 46.8768 17.8016C46.8693 17.7771 46.8704 17.7515 46.8608 17.728C46.8512 17.7045 46.8437 17.7045 46.8384 17.6917C46.7865 17.5757 46.7142 17.4698 46.6251 17.3792L33.8251 4.5792C33.7344 4.49003 33.6286 4.41778 33.5125 4.36587C33.4987 4.35947 33.4891 4.3488 33.4763 4.34347C33.4635 4.33813 33.4272 4.33493 33.4037 4.32747C33.3178 4.29884 33.2285 4.28127 33.1381 4.2752C33.1115 4.2784 33.0901 4.26667 33.0667 4.26667H6.4V3.2ZM34.1333 7.90827L43.2917 17.0667H35.2C34.6109 17.0667 34.1333 16.5891 34.1333 16V7.90827ZM43.7333 61.8667H3.2C2.6109 61.8667 2.13333 61.3891 2.13333 60.8V7.46667C2.13333 6.87756 2.6109 6.4 3.2 6.4H32V16C32 17.7673 33.4327 19.2 35.2 19.2H44.8V25.8208L41.3664 27.3067C41.5138 27.1255 41.596 26.9001 41.6 26.6667C41.6 26.0776 41.1224 25.6 40.5333 25.6H25.6C25.0109 25.6 24.5333 26.0776 24.5333 26.6667C24.5333 27.2558 25.0109 27.7333 25.6 27.7333H40.3723L35.4336 29.8667H6.4C5.8109 29.8667 5.33333 30.3442 5.33333 30.9333C5.33333 31.5224 5.8109 32 6.4 32H32.0075C32.0075 32.0171 32 32.0331 32 32.0512V34.1333H25.6C25.0109 34.1333 24.5333 34.6109 24.5333 35.2C24.5333 35.7891 25.0109 36.2667 25.6 36.2667H32V38.4H6.4C5.8109 38.4 5.33333 38.8776 5.33333 39.4667C5.33333 40.0558 5.8109 40.5333 6.4 40.5333H32V42.6667H25.6C25.0109 42.6667 24.5333 43.1442 24.5333 43.7333C24.5333 44.3224 25.0109 44.8 25.6 44.8H32V46.9333H6.4C5.8109 46.9333 5.33333 47.4109 5.33333 48C5.33333 48.5891 5.8109 49.0667 6.4 49.0667H32.1333C32.2394 49.7945 32.4203 50.5093 32.6731 51.2H25.6C25.0109 51.2 24.5333 51.6776 24.5333 52.2667C24.5333 52.8558 25.0109 53.3333 25.6 53.3333H33.7504C34.2545 54.1181 34.8571 54.8351 35.5435 55.4667H6.4C5.8109 55.4667 5.33333 55.9442 5.33333 56.5333C5.33333 57.1224 5.8109 57.6 6.4 57.6H38.4L44.2112 61.7365C44.0647 61.8177 43.9008 61.8624 43.7333 61.8667ZM61.8667 47.4763C61.8563 50.294 60.4862 52.9333 58.1877 54.5632L48 61.8155L37.8123 54.5621C35.5141 52.9324 34.1441 50.2936 34.1333 47.4763V32.7563L36.064 31.9221L36.0843 31.9136L48 26.7616L61.8667 32.752V47.4763Z" fill="black"/>
<path d="M47.5733 29.2683L36.9066 33.8763C36.5174 34.0461 36.266 34.4308 36.2666 34.8555V47.4763C36.2763 49.6035 37.3123 51.5953 39.0485 52.8245L47.3813 58.7563C47.7516 59.0199 48.2483 59.0199 48.6186 58.7563L56.9514 52.8245C58.6873 51.595 59.7232 49.6034 59.7333 47.4763V34.8555C59.7339 34.4308 59.4825 34.0461 59.0933 33.8763L48.4266 29.2683C48.1546 29.1495 47.8453 29.1495 47.5733 29.2683ZM57.5999 35.5616V47.4763C57.5922 48.916 56.8893 50.2632 55.713 51.0933L47.9999 56.5781L40.2869 51.0869C39.112 50.2585 38.4093 48.9138 38.3999 47.4763V35.5563L47.9999 31.4101L57.5999 35.5616Z" fill="black"/>
<path d="M42.2399 45.0134C41.935 44.7847 41.5313 44.7361 41.1809 44.8858C40.8304 45.0355 40.5865 45.3608 40.5409 45.7391C40.4953 46.1175 40.655 46.4914 40.9599 46.7201L45.2266 49.9201C45.6874 50.2659 46.3396 50.1833 46.6996 49.7334L55.233 39.0667C55.6011 38.6066 55.5267 37.9352 55.0666 37.567C54.6065 37.1988 53.935 37.2733 53.5668 37.7334L45.6799 47.5937L42.2399 45.0134Z" fill="black"/>
</g>
<defs>
<clipPath id="clip0">
<rect width="64" height="64" fill="white"/>
</clipPath>
</defs>
</svg>
