<svg width="77" height="50" viewBox="0 0 77 50" fill="none" xmlns="http://www.w3.org/2000/svg">
<path d="M76.4118 38.4464L69.3567 12.5577L71.9289 29.2281L66.9239 22.2926L65.5233 30.2165L62.9511 13.5461L61.2528 30.8754L58.1341 21.9972L56.4845 28.3078L52.5825 22.8538L50.5645 35.2774L48.988 25.06L46.3062 33.1816L43.734 16.5113L42.8191 30.4164L39.7711 24.8305L37.0307 26.905L33.7217 22.4606L31.2302 26.1484L26.3568 8.73196L20.8761 12.881L21.3739 16.1075L18.8116 16.5029L13.8409 21.1237L13.26 17.3595L10.4245 21.6509L8.84799 11.4335L4.71914 18.6773L1.58822 12.5537" stroke="#C4C4C4"/>
</svg>
