<svg width="77" height="50" viewBox="0 0 77 50" fill="none" xmlns="http://www.w3.org/2000/svg">
<path d="M0.588199 38.5673L7.64327 12.6786L5.07106 29.3489L10.0761 22.4134L11.4767 30.3373L14.0489 13.667L15.7472 30.9963L18.8659 22.118L20.5155 28.4287L24.4175 22.9746L26.4355 35.3982L28.012 25.1809L30.6938 33.3025L33.266 16.6321L34.1809 30.5372L37.2289 24.9514L39.9693 27.0259L43.2783 22.5815L45.7698 26.2692L50.6432 8.85281L56.1239 13.0018L55.6261 16.2283L58.1884 16.6237L63.1591 21.2446L63.74 17.4803L66.5755 21.7717L68.152 11.5544L72.2809 18.7982L75.4118 12.6746" stroke="#C4C4C4"/>
</svg>
